<svg width="1260" height="1243" viewBox="0 0 1260 1243" fill="none" xmlns="http://www.w3.org/2000/svg">
<g filter="url(#filter0_f_460_2056)">
<path d="M977.821 563.377C829.16 424.252 204.728 785.508 195.649 793.712C-173.953 1069.89 647.724 1095.49 667.054 1099.58C426.391 826.866 929.825 707.849 977.821 563.377Z" fill="#3B37FF"/>
<path d="M868.737 391.963C894.209 270.298 571.766 356.261 407.36 414.45C256.415 555.917 584.253 891.924 630.915 740.984C704.009 504.545 836.897 544.045 868.737 391.963Z" fill="#37E7FF"/>
<path d="M820.676 422.4C853.839 285.782 481.598 401.48 291.333 476.406C101.807 550.868 588.317 1016.95 506.647 826.675C424.977 636.398 779.223 593.174 820.676 422.4Z" fill="#FF37D3"/>
<path d="M797.539 418.248C714.743 340.943 367.248 541.378 362.197 545.931C156.533 699.192 613.941 713.651 624.703 715.927C490.653 564.411 770.863 498.465 797.539 418.248Z" fill="#EB1B1B"/>
<path d="M944.508 515.102C967.562 439.095 678.972 539.994 531.795 599.945C470.336 624.12 558.87 695.931 638.537 821.604C718.204 947.277 771.361 849.293 795.371 709.472C819.381 569.65 915.69 610.111 944.508 515.102Z" fill="#FFF500"/>
<path d="M757.578 520.615C754.436 491.54 473.801 598.69 333.876 655.898C416.613 747.325 581.597 906.281 579.638 810.701C577.189 691.225 644.445 625.486 677.252 604.303C710.059 583.12 761.506 556.958 757.578 520.615Z" fill="white"/>
</g>
<g style="mix-blend-mode:color-dodge" filter="url(#filter1_f_460_2056)">
<path d="M1065.71 451.462C889.662 349.171 362.013 841.112 355.002 851.141C56.6508 1203.08 863.184 1043.99 882.939 1043.64C587.308 831.77 1051.29 603.014 1065.71 451.462Z" fill="#3B37FF"/>
<path d="M839.749 304.499C865.222 182.834 542.778 268.797 378.373 326.986C227.428 468.453 555.265 804.46 601.928 653.52C675.022 417.08 807.909 456.58 839.749 304.499Z" fill="#37E7FF"/>
<path d="M991.373 525.049C1035.32 467.681 665.561 601.576 462.029 579.054C272.504 653.516 759.013 1119.6 677.344 929.324C595.674 739.046 884.504 664.551 991.373 525.049Z" fill="#FF37D3"/>
<path d="M773.313 252.83C673.457 199.351 389.007 482.218 385.292 487.915C225.825 688.805 671.636 585.445 682.622 584.885C514.191 472.825 768.107 337.205 773.313 252.83Z" fill="#EB1B1B"/>
<path d="M806.843 647.419C864.561 592.854 563.925 537.33 406.392 516.389C341.034 506.897 382.294 613.164 389.138 761.804C395.982 910.443 490.739 851.727 580.938 742.225C671.136 632.722 734.696 715.624 806.843 647.419Z" fill="#FFF500"/>
<path d="M802.531 550.036C799.843 520.916 517.57 623.674 376.769 678.692C458.069 771.398 620.553 932.91 620.085 837.31C619.501 717.811 687.775 653.129 720.908 632.461C754.042 611.793 805.891 586.436 802.531 550.036Z" fill="white"/>
</g>
<defs>
<filter id="filter0_f_460_2056" x="0.203735" y="230.264" width="1077.62" height="969.312" filterUnits="userSpaceOnUse" color-interpolation-filters="sRGB">
<feFlood flood-opacity="0" result="BackgroundImageFix"/>
<feBlend mode="normal" in="SourceGraphic" in2="BackgroundImageFix" result="shape"/>
<feGaussianBlur stdDeviation="50" result="effect1_foregroundBlur_460_2056"/>
</filter>
<filter id="filter1_f_460_2056" x="188.857" y="142.8" width="976.852" height="1037.01" filterUnits="userSpaceOnUse" color-interpolation-filters="sRGB">
<feFlood flood-opacity="0" result="BackgroundImageFix"/>
<feBlend mode="normal" in="SourceGraphic" in2="BackgroundImageFix" result="shape"/>
<feGaussianBlur stdDeviation="50" result="effect1_foregroundBlur_460_2056"/>
</filter>
</defs>
</svg>
